<svg width="96" height="96" viewBox="0 0 96 96" fill="none" xmlns="http://www.w3.org/2000/svg">
  <rect width="96" height="96" rx="24" fill="#C76634"/>
  <circle cx="48" cy="48" r="28" fill="#FCE7DC"/>
  <path d="M31 48C31 36 38.5 28 49.5 28C56 28 60.5 30.5 64 35L56.5 40C54.5 37.5 52.5 36.5 49.5 36.5C43.5 36.5 40 41 40 48C40 55 43.5 59.5 49.5 59.5C52.5 59.5 54.5 58.5 56.5 56L64 61C60.5 65.5 56 68 49.5 68C38.5 68 31 60 31 48Z" fill="#934821"/>
  <text x="48" y="84" text-anchor="middle" font-family="Arial, sans-serif" font-size="12" font-weight="700" fill="#934821">GLO</text>
</svg>
